<svg width="34" height="34" viewBox="0 0 34 34" fill="none" xmlns="http://www.w3.org/2000/svg">
<circle cx="17" cy="17" r="17" fill="white"/>
<path d="M20.481 10H14.519C12.5786 10 11 11.5786 11 13.519V19.4811C11 21.4214 12.5786 23 14.519 23H20.4811C22.4214 23 24 21.4214 24 19.4811V13.519C24 11.5786 22.4214 10 20.481 10V10ZM23.2379 19.4811C23.2379 21.0012 22.0012 22.2379 20.481 22.2379H14.519C12.9988 22.2379 11.7621 21.0012 11.7621 19.4811V13.519C11.7621 11.9988 12.9988 10.7621 14.519 10.7621H20.4811C22.0012 10.7621 23.2379 11.9988 23.2379 13.519V19.4811Z" fill="black"/>
<path d="M17.4999 12.9453C15.5399 12.9453 13.9453 14.5399 13.9453 16.4999C13.9453 18.4599 15.5399 20.0545 17.4999 20.0545C19.4599 20.0545 21.0545 18.4599 21.0545 16.4999C21.0545 14.5399 19.4599 12.9453 17.4999 12.9453ZM17.4999 19.2924C15.9602 19.2924 14.7074 18.0397 14.7074 16.4999C14.7074 14.9602 15.9602 13.7074 17.4999 13.7074C19.0397 13.7074 20.2924 14.9602 20.2924 16.4999C20.2924 18.0397 19.0397 19.2924 17.4999 19.2924Z" fill="black"/>
<path d="M21.1394 11.6831C20.5602 11.6831 20.0891 12.1543 20.0891 12.7334C20.0891 13.3127 20.5602 13.7839 21.1394 13.7839C21.7187 13.7839 22.1899 13.3127 22.1899 12.7334C22.1899 12.1542 21.7187 11.6831 21.1394 11.6831ZM21.1394 13.0217C20.9806 13.0217 20.8512 12.8923 20.8512 12.7334C20.8512 12.5745 20.9806 12.4452 21.1394 12.4452C21.2984 12.4452 21.4278 12.5745 21.4278 12.7334C21.4278 12.8923 21.2984 13.0217 21.1394 13.0217Z" fill="black"/>
</svg>
