<svg width="14" height="12" viewBox="0 0 14 12" fill="none" xmlns="http://www.w3.org/2000/svg">
<path d="M0.841477 7.31602C0.898762 7.32532 0.956735 7.32961 1.01474 7.32885L10.8915 7.32885L10.6761 7.42902C10.4656 7.52866 10.2741 7.66426 10.1101 7.8297L7.34046 10.5994C6.97569 10.9476 6.91439 11.5078 7.19521 11.9266C7.52205 12.373 8.14882 12.4699 8.5952 12.1431C8.63126 12.1166 8.66554 12.0878 8.69775 12.0568L13.7062 7.04838C14.0976 6.65741 14.098 6.02318 13.707 5.63177C13.7067 5.63152 13.7065 5.63124 13.7062 5.63099L8.69775 0.622523C8.30603 0.231894 7.6718 0.23277 7.28114 0.624495C7.2504 0.655328 7.2217 0.688133 7.19521 0.722692C6.91439 1.14156 6.97569 1.70172 7.34046 2.04993L10.1051 4.82462C10.2521 4.97175 10.4211 5.09511 10.606 5.19024L10.9065 5.32547L1.06986 5.32547C0.558155 5.30647 0.109209 5.66392 0.0130777 6.16689C-0.0754786 6.71297 0.295399 7.22743 0.841477 7.31602Z" fill="#DC7000"/>
</svg>
